<?xml version="1.0" encoding="UTF-8"?>
<!DOCTYPE svg PUBLIC "-//W3C//DTD SVG 1.1//EN" "http://www.w3.org/Graphics/SVG/1.1/DTD/svg11.dtd">
<!-- Creator: CorelDRAW 2020 (64-Bit) -->
<svg xmlns="http://www.w3.org/2000/svg" xml:space="preserve" width="31.25in" height="31.25in" version="1.1" style="shape-rendering:geometricPrecision; text-rendering:geometricPrecision; image-rendering:optimizeQuality; fill-rule:evenodd; clip-rule:evenodd"
viewBox="0 0 31249.99 31249.99"
 xmlns:xlink="http://www.w3.org/1999/xlink"
 xmlns:xodm="http://www.corel.com/coreldraw/odm/2003">
 <defs>
  <style type="text/css">
   <![CDATA[
    .fil3 {fill:none}
    .fil0 {fill:#373F47}
    .fil1 {fill:#373F47}
    .fil2 {fill:#4B5259;fill-rule:nonzero}
   ]]>
  </style>
 </defs>
 <g id="Layer_x0020_1">
  <metadata id="CorelCorpID_0Corel-Layer"/>
  <g id="_2471030494480">
   <path class="fil0" d="M5031.02 1927.09l17429.26 0 0 3820.28 3748.24 0 0 23585.95 -21177.5 0 0 -27406.24zm1167.78 1511.25l15040.01 0 0 3398.95 3801.97 0 0 20984.79 -18841.98 0 0 -24383.74z"/>
   <path class="fil1" d="M7366.78 4805.54l12650.38 0 0 3095.03 3855.62 0 0 19108.51 -16506 0 0 -22203.54zm6269.06 17132.35l3828.19 0 0 1257.82 -3828.19 0 0 -1257.82zm0 -6304l8093.87 0 0 1257.82 -8093.87 0 0 -1257.82zm0 -5906.35l5906.34 0 0 1257.82 -5906.34 0 0 -1257.82zm-4539.08 11375.16l2679.75 0 0 2679.76 -2679.75 0 0 -2679.76zm0 -6097.78l2679.75 0 0 2679.76 -2679.75 0 0 -2679.76zm0 -6097.74l2679.75 0 0 2679.76 -2679.75 0 0 -2679.76z"/>
   <path class="fil2" d="M22460.28 1927.09l3748.24 3820.28 -3748.24 0 0 -3820.28zm1874.11 1910.13m0 1910.15m-1874.11 -1910.15"/>
  </g>
 </g>
 <rect class="fil3" x="13010.41" y="13020.83" width="5218.75" height="5218.75"/>
</svg>
